<?xml version="1.0" standalone="yes"?>
<svg xmlns="http://www.w3.org/2000/svg" width="512" height="512">
<path style="fill:#ffffff; stroke:none;" d="M0 0L0 512L234 512C226.218 508.727 215.415 509.245 207 507.551C191.998 504.532 177.143 499.984 163 494.139C92.8988 465.164 38.1101 403.495 18.7346 330C5.2731 278.938 8.85068 223.994 28.4491 175C33.136 163.283 38.933 151.804 45.4498 141C48.6769 135.65 52.9786 130.619 55.6975 125C57.6111 121.046 57 116.268 57 112L57 87C57 82.7375 55.7665 75.8618 59.4336 72.7423C61.9813 70.5751 65.895 71.0052 69 71L92 71C92 63.3337 91.9603 55.6662 92.0008 48C92.0204 44.2735 91.9672 40.121 95.2284 37.6034C97.9317 35.5165 101.8 36.0014 105 36L125 36C125 24.419 122.697 10.5492 128 0L0 0z"/>
<path style="fill:#c3ddf4; stroke:none;" d="M148 388C144.31 379.291 146 368.32 146 359L146 301L146 98L146 32C146 21.8717 143.995 9.45193 148 0C142.674 0 131.681 -2.08734 127.434 1.60339C123.178 5.30182 125 14.9674 125 20C125 37.6658 126 55.2863 126 73L126 306L126 365C126 370.101 123.748 382.541 127.603 386.397C131.356 390.149 143.027 388 148 388z"/>
<path style="fill:#d9eafc; stroke:none;" d="M148.318 1.02777C144.882 3.32065 146 9.4798 146 13L146 45L146 180L146 330L146 370C146 374.285 144.548 381.966 147.028 385.682C149.884 389.962 160.542 388 165 388L216 388L388 388L434 388C438.719 388 447.61 389.689 451.682 386.972C455.118 384.679 454 378.52 454 375L454 343L454 207C454 156.941 455 107.044 455 57L455 18C455 13.5956 456.382 6.15591 453.821 2.3179C450.967 -1.95959 440.459 0 436 0L385 0L212 0L166 0C161.281 0 152.39 -1.68945 148.318 1.02777z"/>
<path style="fill:#ffffff; stroke:none;" d="M453 0C456.703 10.1614 455 22.3013 455 33L455 93C455 102.187 453.43 112.995 455.279 122C456.517 128.032 462.045 133.871 465.305 139C470.565 147.278 475.033 156.138 479.219 165C491.511 191.024 498.115 219.464 500.83 248C510.254 347.025 451.698 443.403 364 487.247C338.284 500.103 307.067 510.92 278 511C284.194 513.599 293.314 512 300 512L347 512L512 512L512 0L453 0z"/>
<path style="fill:#d9d0cf; stroke:none;" d="M345 35C351.194 37.5991 360.314 36 367 36L416 36C409.806 33.4009 400.686 35 394 35L345 35z"/>
<path style="fill:#ef8318; stroke:none;" d="M113 424C109.204 415.042 111 403.591 111 394L111 335L111 128L111 62C111 54.5925 108.634 42.7263 114 37C109.324 35.0378 96.1626 34.109 93.179 39.1481C90.1291 44.2992 92 54.1918 92 60C92 77.9562 93 95.9757 93 114L93 351L93 404C93 408.59 91.0946 418.888 94.6034 422.397C98.1223 425.916 108.37 424 113 424z"/>
<path style="fill:#ff9518; stroke:none;" d="M113 424L96 424C103.123 426.989 112.528 424.367 120 424.039C135.273 423.371 150.712 424 166 424L338 424L394 424C400.704 424 411.661 426.099 417.852 423.397C421.51 421.799 420.993 417.31 421 414L421 389L204 389L149 389C143.104 389 132.912 390.974 128.228 386.682C122.688 381.606 125 369.787 125 363L125 298L125 36C121.23 36 114.664 34.8227 112.179 38.4337C108.651 43.5595 111 55.9639 111 62L111 123L111 338L111 397C111 405.338 109.007 416.517 113 424z"/>
<path style="fill:#f3a84d; stroke:none;" d="M125 36L125 384C128.105 376.6 126 365.007 126 357L126 297L126 113L126 60C126 52.7844 127.802 42.6777 125 36z"/>
<path style="fill:#db8954; stroke:none;" d="M342.667 36.3333C342.222 36.7778 343.278 36.7222 343.333 36.6667C343.778 36.2222 342.722 36.2778 342.667 36.3333z"/>
<path style="fill:#db722c; stroke:none;" d="M344.019 36.5725C338.429 38.2401 336.064 46.4673 342.214 49.2577C347.016 51.4367 354.819 50 360 50L400 50C405.218 50 414.229 51.7096 418.852 48.9722C425.179 45.2257 420.993 36.9305 414.996 36.1335C400.196 34.1665 383.938 36 369 36C361.31 36 351.428 34.3622 344.019 36.5725z"/>
<path style="fill:#daa17d; stroke:none;" d="M419 37L420 38L419 37z"/>
<path style="fill:#dab9a6; stroke:none;" d="M421 39L422 40L421 39z"/>
<path style="fill:#daa27f; stroke:none;" d="M338.333 40.6667C338.278 40.7223 338.222 41.7777 338.667 41.3333C338.722 41.2778 338.778 40.2222 338.333 40.6667z"/>
<path style="fill:#dab6a1; stroke:none;" d="M422 41L422 45C422.71 43.2405 422.71 42.7595 422 41z"/>
<path style="fill:#f4bf52; stroke:none;" d="M166 42C171.715 44.398 179.831 43 186 43C180.285 40.602 172.169 42 166 42z"/>
<path style="fill:#a5e3ee; stroke:none;" d="M284 42C289.715 44.398 297.831 43 304 43C298.285 40.602 290.169 42 284 42z"/>
<path style="fill:#ffaf10; stroke:none;" d="M165 43L165 112L188 112L188 61C188 57.0624 189.829 46.7464 186.397 44.0278C184.718 42.6987 181.992 43.0145 180 43.0008L165 43z"/>
<path style="fill:#efc872; stroke:none;" d="M187 43L188 44L187 43z"/>
<path style="fill:#91e0e8; stroke:none;" d="M282 43L282 112L305 112L305 43L282 43z"/>
<path style="fill:#eccd88; stroke:none;" d="M164 44L165 45L164 44z"/>
<path style="fill:#a5e3ee; stroke:none;" d="M305 44L305 112C306.981 107.28 306 101.08 306 96L306 62C306 56.3809 307.189 49.2165 305 44z"/>
<path style="fill:#f8ba3b; stroke:none;" d="M164 45L164 112C165.981 107.28 165 101.08 165 96L165 63C165 57.3809 166.189 50.2165 164 45z"/>
<path style="fill:#e6d6ab; stroke:none;" d="M188 45L188 112C189.981 107.28 189 101.08 189 96L189 63C189 57.3809 190.189 50.2165 188 45z"/>
<path style="fill:#b7e5f3; stroke:none;" d="M281 45L281 112C282.981 107.28 282 101.08 282 96L282 63C282 57.3809 283.189 50.2165 281 45z"/>
<path style="fill:#daab90; stroke:none;" d="M338 45L339 46L338 45z"/>
<path style="fill:#dbad92; stroke:none;" d="M339 47L340 48L339 47z"/>
<path style="fill:#dab8a5; stroke:none;" d="M420 48L421 49L420 48z"/>
<path style="fill:#dab29a; stroke:none;" d="M341 49L342 50L341 49z"/>
<path style="fill:#daa483; stroke:none;" d="M343.667 50.3333C343.222 50.7777 344.278 50.7223 344.333 50.6667C344.778 50.2223 343.722 50.2778 343.667 50.3333z"/>
<path style="fill:#db8b59; stroke:none;" d="M345 50C351.194 52.5991 360.314 51 367 51L416 51C409.806 48.4009 400.686 50 394 50L345 50z"/>
<path style="fill:#dac5bb; stroke:none;" d="M416.667 50.3333C416.222 50.7776 417.278 50.7223 417.333 50.6667C417.778 50.2222 416.722 50.2778 416.667 50.3333z"/>
<path style="fill:#e8a4b4; stroke:none;" d="M205 61L206 62L205 61z"/>
<path style="fill:#f46978; stroke:none;" d="M206 61C211.469 63.295 219.099 62 225 62C219.531 59.705 211.901 61 206 61z"/>
<path style="fill:#e4b5c6; stroke:none;" d="M225 61L226 62L225 61z"/>
<path style="fill:#daad92; stroke:none;" d="M343.667 61.3333C343.222 61.7778 344.278 61.7222 344.333 61.6667C344.778 61.2223 343.722 61.2778 343.667 61.3333z"/>
<path style="fill:#da9366; stroke:none;" d="M345 61C351.194 63.5991 360.314 62 367 62L416 62C409.806 59.4009 400.686 61 394 61L345 61z"/>
<path style="fill:#d9cfcd; stroke:none;" d="M416.667 61.3333C416.222 61.7777 417.278 61.7222 417.333 61.6667C417.778 61.2222 416.722 61.2778 416.667 61.3333z"/>
<path style="fill:#fe3745; stroke:none;" d="M204 62L204 112L227 112L227 76C227 72.6845 228.351 65.3675 225.397 63.0278C223.719 61.6987 220.992 62.0145 219 62.0008L204 62z"/>
<path style="fill:#f36b7a; stroke:none;" d="M226 62L227 63L226 62z"/>
<path style="fill:#dabdae; stroke:none;" d="M341 62L342 63L341 62z"/>
<path style="fill:#db722c; stroke:none;" d="M342.148 63.0278C337.115 66.0077 338.558 74.2509 344.019 75.6821C349.452 77.1058 356.404 76 362 76L400 76C405.257 76 415.289 77.8966 419.566 74.2577C423.654 70.78 422.103 63.6602 416.981 62.3179C411.548 60.8942 404.596 62 399 62L362 62C356.553 62 346.966 60.1753 342.148 63.0278z"/>
<path style="fill:#e7a5b6; stroke:none;" d="M203 63L204 64L203 63z"/>
<path style="fill:#da9970; stroke:none;" d="M340 63L341 64L340 63z"/>
<path style="fill:#dac1b5; stroke:none;" d="M420 63L421 64L420 63z"/>
<path style="fill:#f46978; stroke:none;" d="M203 64L203 112C204.661 108.041 204 103.26 204 99L204 76C204 72.0172 204.552 67.6987 203 64z"/>
<path style="fill:#ea96a6; stroke:none;" d="M227 64L227 112C228.661 108.041 228 103.26 228 99L228 76C228 72.0172 228.552 67.6986 227 64z"/>
<path style="fill:#dab49e; stroke:none;" d="M339 64L340 65L339 64z"/>
<path style="fill:#db8751; stroke:none;" d="M338 66L338 71C338.83 68.9695 338.83 68.0305 338 66z"/>
<path style="fill:#daab8f; stroke:none;" d="M422 67L422 70C422.696 68.4463 422.696 68.5537 422 67z"/>
<path style="fill:#ef9614; stroke:none;" d="M76 433L76 172L76 104C76 92.8607 73.8997 80.6979 80 71C74.7607 71 62.7146 68.7699 58.7423 72.7423C54.898 76.5865 57 87.9711 57 93C57 111.724 58 130.287 58 149L58 353L58 393C58 398.79 56.6882 406.477 58.5887 412C61.1112 419.33 69.9546 428.377 76 433z"/>
<path style="fill:#ffaf10; stroke:none;" d="M103 460C111.024 458.09 119.791 459 128 459L171 459L310 459L363 459C368.361 459 379.088 461.038 383.682 457.972C386.516 456.081 385.994 451.946 386 449L386 425L169 425L115 425C109.511 425 99.5556 426.92 95.3179 422.682C90.581 417.945 93 405.2 93 399L93 333L93 71C88.4738 71 80.7656 69.5242 78.0278 74.1481C76.5341 76.6708 77.0013 80.1971 77 83L77 100L77 165L77 354L77 409C77 416.285 75.0276 426.997 77.7276 433.83C82.0645 444.807 96.3104 450.582 103 460z"/>
<path style="fill:#dabaa9; stroke:none;" d="M338 71L339 72L338 71z"/>
<path style="fill:#dab199; stroke:none;" d="M421 72L422 73L421 72z"/>
<path style="fill:#f59f13; stroke:none;" d="M76 75L76 433C78.9032 426.081 77 415.48 77 408L77 354L77 164L77 102C77 93.9926 79.105 82.3995 76 75z"/>
<path style="fill:#dabcad; stroke:none;" d="M418 75L419 76L418 75z"/>
<path style="fill:#dac8c1; stroke:none;" d="M345 76C351.194 78.5991 360.314 77 367 77L416 77C409.806 74.4009 400.686 76 394 76L345 76z"/>
<path style="fill:#64ce9e; stroke:none;" d="M244 84C249.715 86.3979 257.831 85 264 85C258.285 82.602 250.169 84 244 84z"/>
<path style="fill:#37c47a; stroke:none;" d="M243 85L243 112L266 112L266 85L243 85z"/>
<path style="fill:#d9d0cf; stroke:none;" d="M345 86C351.194 88.5991 360.314 87 367 87L416 87C409.806 84.4009 400.686 86 394 86L345 86z"/>
<path style="fill:#79d4af; stroke:none;" d="M242 87L242 112C244.413 106.25 244.413 92.7504 242 87M266 87L266 112C268.413 106.25 268.413 92.7504 266 87z"/>
<path style="fill:#db8954; stroke:none;" d="M342.667 87.3333C342.222 87.7778 343.278 87.7222 343.333 87.6667C343.778 87.2222 342.722 87.2779 342.667 87.3333z"/>
<path style="fill:#db722c; stroke:none;" d="M344.019 87.5725C338.429 89.24 336.064 97.4672 342.214 100.258C347.016 102.437 354.819 101 360 101L400 101C405.218 101 414.229 102.71 418.852 99.9722C425.179 96.2257 420.993 87.9305 414.996 87.1335C400.196 85.1665 383.938 87 369 87C361.31 87 351.428 85.3622 344.019 87.5725z"/>
<path style="fill:#daa17d; stroke:none;" d="M419 88L420 89L419 88z"/>
<path style="fill:#dab9a6; stroke:none;" d="M421 90L422 91L421 90z"/>
<path style="fill:#daa27f; stroke:none;" d="M338.333 91.6667C338.278 91.7223 338.222 92.7777 338.667 92.3333C338.722 92.2778 338.778 91.2222 338.333 91.6667z"/>
<path style="fill:#dab6a1; stroke:none;" d="M422 92L422 96C422.71 94.2405 422.71 93.7595 422 92z"/>
<path style="fill:#daab90; stroke:none;" d="M338 96L339 97L338 96z"/>
<path style="fill:#dbad92; stroke:none;" d="M339 98L340 99L339 98z"/>
<path style="fill:#dab8a5; stroke:none;" d="M420 99L421 100L420 99z"/>
<path style="fill:#dab49d; stroke:none;" d="M341 100L342 101L341 100z"/>
<path style="fill:#daa585; stroke:none;" d="M343.667 101.333C343.222 101.778 344.278 101.722 344.333 101.667C344.778 101.222 343.722 101.278 343.667 101.333z"/>
<path style="fill:#db8b59; stroke:none;" d="M345 101C351.194 103.599 360.314 102 367 102L416 102C409.806 99.4009 400.686 101 394 101L345 101z"/>
<path style="fill:#dac7c0; stroke:none;" d="M416.667 101.333C416.222 101.778 417.278 101.722 417.333 101.667C417.778 101.222 416.722 101.278 416.667 101.333z"/>
<path style="fill:#77c8f2; stroke:none;" d="M157 112C159.332 112.985 161.457 112.981 164 113C161.668 112.015 159.543 112.019 157 112z"/>
<path style="fill:#82b8b0; stroke:none;" d="M164 112C170.687 114.806 180.767 113 188 113C181.313 110.194 171.233 112 164 112z"/>
<path style="fill:#77c8f2; stroke:none;" d="M188 112C192.471 113.876 198.183 113 203 113C198.529 111.124 192.817 112 188 112z"/>
<path style="fill:#8296bf; stroke:none;" d="M203 112C209.687 114.806 219.767 113 227 113C220.313 110.194 210.233 112 203 112z"/>
<path style="fill:#77c8f2; stroke:none;" d="M227 112C231.471 113.876 237.183 113 242 113C237.529 111.124 231.817 112 227 112z"/>
<path style="fill:#52bbef; stroke:none;" d="M242 112.71C229.336 112.878 216.673 113 204 113C189.225 113 172.587 110.837 158.005 113.148C152.4 114.037 149.823 121.335 154.434 125.258C156.981 127.425 160.895 126.995 164 127L187 127L276 127L304 127C307.591 127 312.606 127.776 315.566 125.258C322.937 118.987 314.179 113.043 308 113.001C286.014 112.85 263.962 112.418 242 112.71z"/>
<path style="fill:#4abece; stroke:none;" d="M243 112C249.445 114.704 259.032 113 266 113C259.555 110.296 249.968 112 243 112z"/>
<path style="fill:#77c8f2; stroke:none;" d="M267 112C271.471 113.876 277.183 113 282 113C277.529 111.124 271.817 112 267 112z"/>
<path style="fill:#63c5ed; stroke:none;" d="M282 112C290.128 115.411 303.186 113 312 113C303.872 109.589 290.814 112 282 112z"/>
<path style="fill:#daad92; stroke:none;" d="M343.667 112.333C343.222 112.778 344.278 112.722 344.333 112.667C344.778 112.222 343.722 112.278 343.667 112.333z"/>
<path style="fill:#da9366; stroke:none;" d="M345 112C351.194 114.599 360.314 113 367 113L416 113C409.806 110.401 400.686 112 394 112L345 112z"/>
<path style="fill:#dacfcd; stroke:none;" d="M416.667 112.333C416.222 112.778 417.278 112.722 417.333 112.667C417.778 112.222 416.722 112.278 416.667 112.333z"/>
<path style="fill:#d9bdae; stroke:none;" d="M341 113L342 114L341 113z"/>
<path style="fill:#db722c; stroke:none;" d="M342.148 114.028C337.115 117.008 338.558 125.251 344.019 126.682C349.452 128.106 356.404 127 362 127L400 127C405.4 127 415.16 128.855 419.566 125.106C423.635 121.645 422.084 114.655 416.981 113.318C411.548 111.894 404.596 113 399 113L362 113C356.553 113 346.966 111.175 342.148 114.028z"/>
<path style="fill:#db9970; stroke:none;" d="M340 114L341 115L340 114z"/>
<path style="fill:#dac1b5; stroke:none;" d="M420 114L421 115L420 114z"/>
<path style="fill:#dab39e; stroke:none;" d="M339 115L340 116L339 115z"/>
<path style="fill:#da8750; stroke:none;" d="M338 117L338 122C338.83 119.97 338.83 119.03 338 117z"/>
<path style="fill:#9ed6f6; stroke:none;" d="M151 118L151 121C151.696 119.446 151.696 119.554 151 118z"/>
<path style="fill:#daab8f; stroke:none;" d="M422 118L422 121C422.696 119.446 422.696 119.554 422 118z"/>
<path style="fill:#dabaa9; stroke:none;" d="M338 122L339 123L338 122z"/>
<path style="fill:#b0864a; stroke:none;" d="M57 123L57 412C59.7007 405.564 58 395.951 58 389L58 340L58 187L58 143C58 136.846 59.3949 128.707 57 123z"/>
<path style="fill:#dab199; stroke:none;" d="M421 123L422 124L421 123z"/>
<path style="fill:#7c93c3; stroke:none;" d="M454 123L454 384C456.497 378.049 455 369.42 455 363L455 319L455 181L455 142C455 136.113 456.292 128.463 454 123z"/>
<path style="fill:#445ea0; stroke:none;" d="M56 124C-4.06826 208.532 -4.06799 325.468 56 410C58.3949 404.293 57 396.154 57 390L57 347L57 196L57 147C57 140.049 58.7007 130.436 56 124M455 124L455 311L455 362C455 368.302 456.86 378.258 453.821 383.956C449.187 392.644 430.284 389 422 389L422 411C421.993 415.179 422.183 419.536 418.772 422.566C415.762 425.24 411.759 424.994 408 425L387 425C387 432.99 387.222 441.014 386.985 449C386.876 452.655 386.233 456.775 382.786 458.821C377.459 461.983 367.022 460 361 460L306 460L105 460C111.872 468.44 123.629 474.492 133 479.85C157.206 493.689 183.554 503.465 211 508.424C290.973 522.874 376.41 497.137 432.961 438C452.219 417.861 468.073 394.307 479.691 369C495.162 335.302 501 299.78 501 263C501 226.657 492.526 190.563 476.247 158C470.616 146.737 464.519 132.478 455 124z"/>
<path style="fill:#da976c; stroke:none;" d="M419 125L420 126L419 125z"/>
<path style="fill:#dabfb2; stroke:none;" d="M418 126L419 127L418 126z"/>
<path style="fill:#b3ddf8; stroke:none;" d="M158 127C162.469 128.875 168.191 128 173 128L204 128L312 128C307.531 126.125 301.809 127 297 127L266 127L158 127z"/>
<path style="fill:#dac8c1; stroke:none;" d="M345 127C351.194 129.599 360.314 128 367 128L416 128C409.806 125.401 400.686 127 394 127L345 127z"/>
<path style="fill:#bde6f4; stroke:none;" d="M228 142C230.332 142.985 232.457 142.981 235 143C232.668 142.015 230.543 142.019 228 142z"/>
<path style="fill:#91e0e8; stroke:none;" d="M228 143L228 172C243.74 172.368 256.675 185.324 257 201L286 201C286 168.272 260.814 143 228 143z"/>
<path style="fill:#e1c3d4; stroke:none;" d="M308 156C311.699 157.552 316.017 157 320 157L341 157L416 157C412.301 155.448 407.983 156 404 156L383 156L308 156z"/>
<path style="fill:#e5b2c3; stroke:none;" d="M205.667 157.333C205.222 157.778 206.278 157.722 206.333 157.667C206.778 157.222 205.722 157.278 205.667 157.333z"/>
<path style="fill:#ef8190; stroke:none;" d="M207 157C209.052 157.874 210.747 157.953 213 158C210.948 157.126 209.253 157.047 207 157z"/>
<path style="fill:#e2bdce; stroke:none;" d="M213 157L213 186C215.292 180.538 214 172.887 214 167C214 163.581 214.328 160.166 213 157z"/>
<path style="fill:#f85362; stroke:none;" d="M305.667 157.333C305.222 157.778 306.278 157.722 306.333 157.667C306.778 157.222 305.722 157.278 305.667 157.333z"/>
<path style="fill:#fe3745; stroke:none;" d="M307.019 157.573C301.429 159.24 299.064 167.467 305.214 170.258C311.866 173.276 323.764 171 331 171L392 171L411 171C413.845 170.994 417.342 171.369 419.682 169.397C423.409 166.255 422.141 159.795 417.891 157.858C413.448 155.833 406.776 157 402 157L337 157C327.848 157 315.822 154.946 307.019 157.573z"/>
<path style="fill:#e4b6c7; stroke:none;" d="M418 157L419 158L418 157z"/>
<path style="fill:#ec8c9c; stroke:none;" d="M200.667 158.333C200.222 158.778 201.278 158.722 201.333 158.667C201.778 158.222 200.722 158.278 200.667 158.333z"/>
<path style="fill:#fe3745; stroke:none;" d="M155 215L184 215C184.729 199.08 197.932 188.031 213 186L213 158C181.392 158 155.265 182.976 155 215z"/>
<path style="fill:#e4b4c6; stroke:none;" d="M303 158L304 159L303 158z"/>
<path style="fill:#ef7d8c; stroke:none;" d="M419 158L420 159L419 158z"/>
<path style="fill:#ec8f9f; stroke:none;" d="M196.667 159.333C196.222 159.778 197.278 159.722 197.333 159.667C197.778 159.222 196.722 159.278 196.667 159.333z"/>
<path style="fill:#e4b8c8; stroke:none;" d="M302 159L303 160L302 159z"/>
<path style="fill:#ef8090; stroke:none;" d="M194 160L195 161L194 160z"/>
<path style="fill:#e9a1b0; stroke:none;" d="M421 160L422 161L421 160z"/>
<path style="fill:#eb92a2; stroke:none;" d="M191 161L192 162L191 161z"/>
<path style="fill:#f65d6b; stroke:none;" d="M301.333 161.667C301.278 161.722 301.222 162.778 301.667 162.333C301.722 162.278 301.778 161.222 301.333 161.667z"/>
<path style="fill:#f17786; stroke:none;" d="M189 162L190 163L189 162z"/>
<path style="fill:#ea9cac; stroke:none;" d="M422 162L422 166C422.71 164.24 422.71 163.759 422 162z"/>
<path style="fill:#f2707f; stroke:none;" d="M187 163L188 164L187 163z"/>
<path style="fill:#f36b7a; stroke:none;" d="M185 164L186 165L185 164z"/>
<path style="fill:#ec8c9c; stroke:none;" d="M183 165L184 166L183 165z"/>
<path style="fill:#e5b2c3; stroke:none;" d="M181 166L182 167L181 166z"/>
<path style="fill:#f36b7a; stroke:none;" d="M301 166L302 167L301 166z"/>
<path style="fill:#f36e7e; stroke:none;" d="M180 167L181 168L180 167z"/>
<path style="fill:#e7aabb; stroke:none;" d="M301 167L302 168L301 167z"/>
<path style="fill:#f26f7e; stroke:none;" d="M302 168L303 169L302 168z"/>
<path style="fill:#ea99a9; stroke:none;" d="M177 169L178 170L177 169z"/>
<path style="fill:#e9a0b0; stroke:none;" d="M420 169L421 170L420 169z"/>
<path style="fill:#f36d7c; stroke:none;" d="M176 170L177 171L176 170z"/>
<path style="fill:#ed8796; stroke:none;" d="M304 170L305 171L304 170z"/>
<path style="fill:#ef7d8d; stroke:none;" d="M306.667 171.333C306.222 171.778 307.278 171.722 307.333 171.667C307.778 171.222 306.722 171.278 306.667 171.333z"/>
<path style="fill:#f65d6c; stroke:none;" d="M308 171C311.699 172.552 316.017 172 320 172L341 172L416 172C412.301 170.448 407.983 171 404 171L383 171L308 171z"/>
<path style="fill:#e4b6c7; stroke:none;" d="M416.667 171.333C416.222 171.778 417.278 171.722 417.333 171.667C417.778 171.222 416.722 171.278 416.667 171.333z"/>
<path style="fill:#ee8292; stroke:none;" d="M167 179L168 180L167 179z"/>
<path style="fill:#e5afc0; stroke:none;" d="M166 180L167 181L166 180z"/>
<path style="fill:#ed8898; stroke:none;" d="M306.667 182.333C306.222 182.778 307.278 182.722 307.333 182.667C307.778 182.222 306.722 182.278 306.667 182.333z"/>
<path style="fill:#f46978; stroke:none;" d="M308 182C311.699 183.552 316.017 183 320 183L341 183L416 183C412.301 181.448 407.983 182 404 182L383 182L308 182z"/>
<path style="fill:#e1c1d2; stroke:none;" d="M416.667 182.333C416.222 182.778 417.278 182.722 417.333 182.667C417.778 182.222 416.722 182.278 416.667 182.333z"/>
<path style="fill:#ec8e9e; stroke:none;" d="M164 183L165 184L164 183z"/>
<path style="fill:#eb92a2; stroke:none;" d="M304 183L305 184L304 183z"/>
<path style="fill:#fe3745; stroke:none;" d="M305.189 183.742C298.962 186.503 301.092 195.149 307.015 196.682C315.074 198.768 325.685 197 334 197L391 197L410 197C413.188 196.994 416.96 197.324 419.566 195.106C424.762 190.687 420.902 183.576 414.999 183.059C389.757 180.846 363.35 183 338 183L316 183C312.643 183 308.339 182.346 305.189 183.742z"/>
<path style="fill:#e6a9b9; stroke:none;" d="M420 184L421 185L420 184z"/>
<path style="fill:#f17888; stroke:none;" d="M302 185L303 186L302 185z"/>
<path style="fill:#e5b0c0; stroke:none;" d="M162 186L163 187L162 186z"/>
<path style="fill:#f65e6d; stroke:none;" d="M209.667 186.333C209.222 186.778 210.278 186.722 210.333 186.667C210.778 186.222 209.722 186.278 209.667 186.333z"/>
<path style="fill:#ee8393; stroke:none;" d="M211.667 186.333C211.222 186.778 212.278 186.722 212.333 186.667C212.778 186.222 211.722 186.278 211.667 186.333z"/>
<path style="fill:#e4b3c4; stroke:none;" d="M301 186L302 187L301 186z"/>
<path style="fill:#f2707f; stroke:none;" d="M205 187L206 188L205 187z"/>
<path style="fill:#ea98a8; stroke:none;" d="M161 188L162 189L161 188z"/>
<path style="fill:#f07b8b; stroke:none;" d="M202 188L203 189L202 188z"/>
<path style="fill:#ec8c9c; stroke:none;" d="M422 188L422 191C422.696 189.446 422.696 189.554 422 188z"/>
<path style="fill:#ee8696; stroke:none;" d="M200 189L201 190L200 189z"/>
<path style="fill:#e99faf; stroke:none;" d="M160 190L161 191L160 190z"/>
<path style="fill:#f17887; stroke:none;" d="M198 190L199 191L198 190z"/>
<path style="fill:#e7a5b6; stroke:none;" d="M159 192L160 193L159 192z"/>
<path style="fill:#f17585; stroke:none;" d="M195 192L196 193L195 192z"/>
<path style="fill:#ef8190; stroke:none;" d="M301 192L302 193L301 192z"/>
<path style="fill:#eb95a5; stroke:none;" d="M194 193L195 194L194 193M421 193L422 194L421 193z"/>
<path style="fill:#e4b4c5; stroke:none;" d="M193 194L194 195L193 194z"/>
<path style="fill:#b9e6f3; stroke:none;" d="M286 194L286 201C287.059 198.466 287.059 196.534 286 194z"/>
<path style="fill:#e6adbe; stroke:none;" d="M302 194L303 195L302 194z"/>
<path style="fill:#ed8999; stroke:none;" d="M158 195L159 196L158 195z"/>
<path style="fill:#e7a5b6; stroke:none;" d="M303 195L304 196L303 195z"/>
<path style="fill:#f36e7d; stroke:none;" d="M419 195L420 196L419 195z"/>
<path style="fill:#e7a5b6; stroke:none;" d="M191 196L192 197L191 196z"/>
<path style="fill:#e6aabb; stroke:none;" d="M418 196L419 197L418 196z"/>
<path style="fill:#ee8595; stroke:none;" d="M190 197L191 198L190 197z"/>
<path style="fill:#e3b7c8; stroke:none;" d="M308 197C311.699 198.552 316.017 198 320 198L341 198L416 198C412.301 196.448 407.983 197 404 197L383 197L308 197z"/>
<path style="fill:#e8a1b1; stroke:none;" d="M188 200L189 201L188 200z"/>
<path style="fill:#f17584; stroke:none;" d="M156.333 201.667C156.278 201.722 156.222 202.778 156.667 202.333C156.722 202.278 156.778 201.222 156.333 201.667z"/>
<path style="fill:#e5b0c0; stroke:none;" d="M187 202L188 203L187 202z"/>
<path style="fill:#e99dae; stroke:none;" d="M155 205L155 208C155.696 206.446 155.696 206.554 155 205z"/>
<path style="fill:#f17585; stroke:none;" d="M185 206L186 207L185 206z"/>
<path style="fill:#e5aebe; stroke:none;" d="M185 207L186 208L185 207z"/>
<path style="fill:#e1c3d4; stroke:none;" d="M308 207C311.699 208.552 316.017 208 320 208L341 208L416 208C412.301 206.448 407.983 207 404 207L383 207L308 207z"/>
<path style="fill:#f85362; stroke:none;" d="M305.667 208.333C305.222 208.778 306.278 208.722 306.333 208.667C306.778 208.222 305.722 208.278 305.667 208.333z"/>
<path style="fill:#fe3745; stroke:none;" d="M307.019 208.573C301.429 210.24 299.064 218.467 305.214 221.258C311.866 224.276 323.764 222 331 222L392 222L411 222C413.845 221.994 417.342 222.369 419.682 220.397C423.409 217.255 422.141 210.795 417.891 208.858C413.448 206.833 406.776 208 402 208L337 208C327.848 208 315.822 205.946 307.019 208.573z"/>
<path style="fill:#e4b5c6; stroke:none;" d="M418 208L419 209L418 208z"/>
<path style="fill:#ed8b9b; stroke:none;" d="M184.333 209.667C184.278 209.722 184.222 210.778 184.667 210.333C184.722 210.278 184.778 209.222 184.333 209.667z"/>
<path style="fill:#e5b0c0; stroke:none;" d="M303 209L304 210L303 209z"/>
<path style="fill:#f07989; stroke:none;" d="M419 209L420 210L419 209z"/>
<path style="fill:#e4b4c6; stroke:none;" d="M302 210L303 211L302 210z"/>
<path style="fill:#e5afc0; stroke:none;" d="M184 211L184 214C184.696 212.446 184.696 212.554 184 211z"/>
<path style="fill:#e99faf; stroke:none;" d="M421 211L422 212L421 211z"/>
<path style="fill:#e1cdd6; stroke:none;" d="M154 212L154 219C155.059 216.466 155.059 214.534 154 212z"/>
<path style="fill:#f65d6b; stroke:none;" d="M301.333 212.667C301.278 212.722 301.222 213.778 301.667 213.333C301.722 213.278 301.778 212.222 301.333 212.667z"/>
<path style="fill:#ea9cac; stroke:none;" d="M422 213L422 217C422.71 215.24 422.71 214.759 422 213z"/>
<path style="fill:#f87659; stroke:none;" d="M155 215C162.888 218.31 175.449 216 184 216C176.112 212.69 163.551 215 155 215z"/>
<path style="fill:#e3dbc1; stroke:none;" d="M242 215C250.128 218.411 263.186 216 272 216C263.872 212.589 250.814 215 242 215z"/>
<path style="fill:#ffaf10; stroke:none;" d="M155 216C155.417 236.212 165.436 255.198 183 265.743C211.871 283.076 252.99 271.701 266.384 240C269.717 232.112 270.999 224.511 271 216L243 216C240.897 226.187 237.334 234.874 228 240.521C208.891 252.083 185.001 237.917 184 216L155 216z"/>
<path style="fill:#f3c25c; stroke:none;" d="M242 216L242 219C242.696 217.446 242.696 217.554 242 216z"/>
<path style="fill:#eccc86; stroke:none;" d="M271 216L271 222C271.951 219.715 271.951 218.285 271 216z"/>
<path style="fill:#e3dabb; stroke:none;" d="M184 217L184 220C184.696 218.446 184.696 218.554 184 217z"/>
<path style="fill:#f36b7a; stroke:none;" d="M301 217L302 218L301 217z"/>
<path style="fill:#e7aabb; stroke:none;" d="M301 218L302 219L301 218z"/>
<path style="fill:#f26f7e; stroke:none;" d="M302 219L303 220L302 219z"/>
<path style="fill:#f0c770; stroke:none;" d="M184.333 220.667C184.278 220.722 184.222 221.778 184.667 221.333C184.722 221.278 184.778 220.222 184.333 220.667z"/>
<path style="fill:#e9a0b0; stroke:none;" d="M420 220L421 221L420 220z"/>
<path style="fill:#ed8796; stroke:none;" d="M304 221L305 222L304 221z"/>
<path style="fill:#f2c361; stroke:none;" d="M155.333 222.667C155.278 222.722 155.222 223.778 155.667 223.333C155.722 223.278 155.778 222.222 155.333 222.667z"/>
<path style="fill:#e7d5a8; stroke:none;" d="M241 222L242 223L241 222z"/>
<path style="fill:#dfe0d4; stroke:none;" d="M271.333 222.667C271.278 222.722 271.222 223.778 271.667 223.333C271.722 223.278 271.778 222.222 271.333 222.667z"/>
<path style="fill:#ef7d8d; stroke:none;" d="M306.667 222.333C306.222 222.778 307.278 222.722 307.333 222.667C307.778 222.222 306.722 222.278 306.667 222.333z"/>
<path style="fill:#f65d6c; stroke:none;" d="M308 222C311.699 223.552 316.017 223 320 223L341 223L416 223C412.301 221.448 407.983 222 404 222L383 222L308 222z"/>
<path style="fill:#e4b6c7; stroke:none;" d="M416.667 222.333C416.222 222.778 417.278 222.722 417.333 222.667C417.778 222.222 416.722 222.278 416.667 222.333z"/>
<path style="fill:#e6d5aa; stroke:none;" d="M155.333 224.667C155.278 224.722 155.222 225.778 155.667 225.333C155.722 225.278 155.778 224.222 155.333 224.667z"/>
<path style="fill:#ebcd89; stroke:none;" d="M185 224L186 225L185 224z"/>
<path style="fill:#e4d8b5; stroke:none;" d="M240 225L241 226L240 225z"/>
<path style="fill:#f0c66b; stroke:none;" d="M240 226L241 227L240 226z"/>
<path style="fill:#eec979; stroke:none;" d="M270 226L270 229C270.696 227.446 270.696 227.554 270 226z"/>
<path style="fill:#edcb82; stroke:none;" d="M186 227L187 228L186 227z"/>
<path style="fill:#eec979; stroke:none;" d="M239 228L240 229L239 228z"/>
<path style="fill:#e3dabc; stroke:none;" d="M156.333 229.667C156.278 229.722 156.222 230.778 156.667 230.333C156.722 230.278 156.778 229.222 156.333 229.667z"/>
<path style="fill:#f0c76f; stroke:none;" d="M187 229L188 230L187 229z"/>
<path style="fill:#f1c465; stroke:none;" d="M238 230L239 231L238 230z"/>
<path style="fill:#f3c25c; stroke:none;" d="M188 231L189 232L188 231z"/>
<path style="fill:#e3dabe; stroke:none;" d="M269.333 231.667C269.278 231.722 269.222 232.778 269.667 232.333C269.722 232.278 269.778 231.222 269.333 231.667z"/>
<path style="fill:#e6d6ac; stroke:none;" d="M189 232L190 233L189 232z"/>
<path style="fill:#ebce8e; stroke:none;" d="M157 233L158 234L157 233z"/>
<path style="fill:#f2c462; stroke:none;" d="M236 233L237 234L236 233z"/>
<path style="fill:#ed8899; stroke:none;" d="M306.667 233.333C306.222 233.778 307.278 233.722 307.333 233.667C307.778 233.222 306.722 233.278 306.667 233.333z"/>
<path style="fill:#f36978; stroke:none;" d="M308 233C311.699 234.552 316.017 234 320 234L341 234L416 234C412.301 232.448 407.983 233 404 233L383 233L308 233z"/>
<path style="fill:#e2c2d3; stroke:none;" d="M416.667 233.333C416.222 233.778 417.278 233.722 417.333 233.667C417.778 233.222 416.722 233.278 416.667 233.333z"/>
<path style="fill:#ebce8c; stroke:none;" d="M235 234L236 235L235 234z"/>
<path style="fill:#f0c66d; stroke:none;" d="M268 234L269 235L268 234z"/>
<path style="fill:#ec91a1; stroke:none;" d="M304 234L305 235L304 234z"/>
<path style="fill:#fe3745; stroke:none;" d="M305.189 234.742C298.962 237.503 301.092 246.149 307.015 247.682C315.074 249.768 325.685 248 334 248L391 248L410 248C413.188 247.994 416.96 248.324 419.566 246.106C424.762 241.687 420.902 234.576 414.999 234.059C389.757 231.846 363.35 234 338 234L316 234C312.643 234 308.339 233.346 305.189 234.742z"/>
<path style="fill:#e4d8b5; stroke:none;" d="M234 235L235 236L234 235z"/>
<path style="fill:#e7a9b9; stroke:none;" d="M420 235L421 236L420 235z"/>
<path style="fill:#e7d4a5; stroke:none;" d="M158 236L159 237L158 236z"/>
<path style="fill:#f2c462; stroke:none;" d="M192 236L193 237L192 236z"/>
<path style="fill:#f07888; stroke:none;" d="M302 236L303 237L302 236z"/>
<path style="fill:#e8d3a1; stroke:none;" d="M232 237L233 238L232 237z"/>
<path style="fill:#edcb7f; stroke:none;" d="M267 237L268 238L267 237z"/>
<path style="fill:#e5b3c4; stroke:none;" d="M301 237L302 238L301 237z"/>
<path style="fill:#f1c569; stroke:none;" d="M159 238L160 239L159 238z"/>
<path style="fill:#eec977; stroke:none;" d="M231 238L232 239L231 238z"/>
<path style="fill:#e6d6ac; stroke:none;" d="M196 239L197 240L196 239z"/>
<path style="fill:#f3c25a; stroke:none;" d="M266 239L267 240L266 239z"/>
<path style="fill:#ec8c9c; stroke:none;" d="M422 239L422 242C422.696 240.446 422.696 240.554 422 239z"/>
<path style="fill:#f2c25e; stroke:none;" d="M160 240L161 241L160 240z"/>
<path style="fill:#f3c25c; stroke:none;" d="M197 240L198 241L197 240z"/>
<path style="fill:#e8d29c; stroke:none;" d="M228 240L229 241L228 240z"/>
<path style="fill:#f0c76f; stroke:none;" d="M199 241L200 242L199 241z"/>
<path style="fill:#e5d7af; stroke:none;" d="M226 241L227 242L226 241z"/>
<path style="fill:#f4c156; stroke:none;" d="M161 242L162 243L161 242z"/>
<path style="fill:#edcb82; stroke:none;" d="M201 242L202 243L201 242z"/>
<path style="fill:#eccd87; stroke:none;" d="M204 243L205 244L204 243z"/>
<path style="fill:#e6d7ae; stroke:none;" d="M221 243L222 244L221 243z"/>
<path style="fill:#ee8393; stroke:none;" d="M301 243L302 244L301 243z"/>
<path style="fill:#f1c568; stroke:none;" d="M162 244L163 245L162 244z"/>
<path style="fill:#ebce8b; stroke:none;" d="M207 244C208.248 244.685 208.548 244.749 210 245C208.752 244.315 208.452 244.251 207 244z"/>
<path style="fill:#e5d7af; stroke:none;" d="M215 244C216.248 244.685 216.548 244.749 218 245C216.752 244.315 216.452 244.251 215 244z"/>
<path style="fill:#f4c055; stroke:none;" d="M218.667 244.333C218.222 244.778 219.278 244.722 219.333 244.667C219.778 244.222 218.722 244.278 218.667 244.333z"/>
<path style="fill:#eb97a7; stroke:none;" d="M421 244L422 245L421 244z"/>
<path style="fill:#eeca7b; stroke:none;" d="M263 245L264 246L263 245z"/>
<path style="fill:#e6aebe; stroke:none;" d="M302 245L303 246L302 245z"/>
<path style="fill:#e9d199; stroke:none;" d="M163 246L164 247L163 246z"/>
<path style="fill:#e8a5b6; stroke:none;" d="M303 246L304 247L303 246z"/>
<path style="fill:#f26e7d; stroke:none;" d="M419 246L420 247L419 246z"/>
<path style="fill:#e5d7b0; stroke:none;" d="M262 247L263 248L262 247z"/>
<path style="fill:#e7aabb; stroke:none;" d="M418 247L419 248L418 247z"/>
<path style="fill:#f3c159; stroke:none;" d="M261 248L262 249L261 248z"/>
<path style="fill:#e4b8c8; stroke:none;" d="M308 248C311.699 249.552 316.017 249 320 249L341 249L416 249C412.301 247.448 407.983 248 404 248L383 248L308 248z"/>
<path style="fill:#eacf90; stroke:none;" d="M165 249L166 250L165 249z"/>
<path style="fill:#ebce8d; stroke:none;" d="M259 251L260 252L259 251z"/>
<path style="fill:#e8d39f; stroke:none;" d="M168 253L169 254L168 253z"/>
<path style="fill:#ebce8d; stroke:none;" d="M169 254L170 255L169 254z"/>
<path style="fill:#eec97a; stroke:none;" d="M170 255L171 256L170 255z"/>
<path style="fill:#f1c566; stroke:none;" d="M171 256L172 257L171 256z"/>
<path style="fill:#f1c567; stroke:none;" d="M172 257L173 258L172 257z"/>
<path style="fill:#eeca7b; stroke:none;" d="M173 258L174 259L173 258z"/>
<path style="fill:#eacf91; stroke:none;" d="M174 259L175 260L174 259z"/>
<path style="fill:#e7d4a5; stroke:none;" d="M175 260L176 261L175 260z"/>
<path style="fill:#f0c76f; stroke:none;" d="M249 261L250 262L249 261z"/>
<path style="fill:#f4c157; stroke:none;" d="M178 262L179 263L178 262z"/>
<path style="fill:#e6d6ab; stroke:none;" d="M248 262L249 263L248 262z"/>
<path style="fill:#eacf91; stroke:none;" d="M179 263L180 264L179 263z"/>
<path style="fill:#edcb82; stroke:none;" d="M245 264L246 265L245 264z"/>
<path style="fill:#e9d196; stroke:none;" d="M182 265L183 266L182 265z"/>
<path style="fill:#f2c361; stroke:none;" d="M184 266L185 267L184 266z"/>
<path style="fill:#e6d5aa; stroke:none;" d="M242 266L243 267L242 266z"/>
<path style="fill:#eccd88; stroke:none;" d="M240 267L241 268L240 267z"/>
<path style="fill:#f3c158; stroke:none;" d="M188 268L189 269L188 268z"/>
<path style="fill:#eacf90; stroke:none;" d="M238 268L239 269L238 268z"/>
<path style="fill:#f1c464; stroke:none;" d="M190 269L191 270L190 269z"/>
<path style="fill:#e9d197; stroke:none;" d="M236 269L237 270L236 269z"/>
<path style="fill:#e7d4a3; stroke:none;" d="M192 270L193 271L192 270z"/>
<path style="fill:#efc876; stroke:none;" d="M233 270L234 271L233 270z"/>
<path style="fill:#eacf90; stroke:none;" d="M195 271L196 272L195 271z"/>
<path style="fill:#f1c568; stroke:none;" d="M230 271L231 272L230 271z"/>
<path style="fill:#eeca7b; stroke:none;" d="M198.667 272.333C198.222 272.778 199.278 272.722 199.333 272.667C199.778 272.222 198.722 272.278 198.667 272.333z"/>
<path style="fill:#e9d19a; stroke:none;" d="M226.667 272.333C226.222 272.778 227.278 272.722 227.333 272.667C227.778 272.222 226.722 272.278 226.667 272.333z"/>
<path style="fill:#e7d4a5; stroke:none;" d="M202 273C203.248 273.685 203.548 273.749 205 274C203.752 273.315 203.452 273.251 202 273z"/>
<path style="fill:#f8ba3b; stroke:none;" d="M205.667 273.333C205.222 273.778 206.278 273.722 206.333 273.667C206.778 273.222 205.722 273.278 205.667 273.333z"/>
<path style="fill:#f0c76f; stroke:none;" d="M220 273C221.248 273.685 221.548 273.749 223 274C221.752 273.315 221.452 273.251 220 273z"/>
<path style="fill:#e2dcc5; stroke:none;" d="M210 274C211.769 274.779 213.036 274.912 215 275C213.231 274.221 211.964 274.088 210 274z"/>
<path style="fill:#f85261; stroke:none;" d="M344 278C348.72 279.981 354.92 279 360 279L393 279C388.28 277.019 382.08 278 377 278L344 278z"/>
<path style="fill:#e5b1c2; stroke:none;" d="M342 279L343 280L342 279z"/>
<path style="fill:#fe3745; stroke:none;" d="M377 333C377 328.932 376.223 323.867 377.742 320.015C380.677 312.574 389.56 314 396 314L396 291C396 288.083 396.683 283.882 394.972 281.318C392.679 277.882 386.52 279 383 279L354 279C350.694 279 345.188 278.019 342.603 280.603C340.019 283.188 341 288.694 341 292L341 321C341.002 324.761 340.361 329.73 344.148 331.972C346.906 333.605 350.935 333 354 333L377 333z"/>
<path style="fill:#ea96a7; stroke:none;" d="M394 279L395 280L394 279z"/>
<path style="fill:#dfcedf; stroke:none;" d="M396 283L396 314C398.497 308.049 397 299.42 397 293C397 289.581 397.328 286.166 396 283z"/>
<path style="fill:#77c8f2; stroke:none;" d="M166 290C169.959 291.661 174.74 291 179 291L202 291L286 291C282.041 289.339 277.26 290 273 290L250 290L166 290z"/>
<path style="fill:#b2dcf8; stroke:none;" d="M286.667 290.333C286.222 290.778 287.278 290.722 287.333 290.667C287.778 290.222 286.722 290.278 286.667 290.333z"/>
<path style="fill:#52bbef; stroke:none;" d="M164.148 292.028C157.956 295.695 162.181 303.94 168.001 304.852C177.551 306.348 188.332 305 198 305L259 305L280 305C283.096 304.999 287.127 305.549 289.682 303.397C293.81 299.918 292.292 292.266 286.956 291.228C277.615 289.413 266.514 291 257 291L197 291L174 291C170.936 291 166.906 290.395 164.148 292.028z"/>
<path style="fill:#72c6f2; stroke:none;" d="M292 295L292 300C292.83 297.97 292.83 297.03 292 295z"/>
<path style="fill:#b3ddf8; stroke:none;" d="M168 305C171.959 306.661 176.74 306 181 306L204 306L286 306C282.041 304.339 277.26 305 273 305L250 305L168 305z"/>
<path style="fill:#c65f54; stroke:none;" d="M382 314C386.217 315.769 391.459 315 396 315C391.783 313.231 386.541 314 382 314z"/>
<path style="fill:#abdfd7; stroke:none;" d="M396 314C400.471 315.876 406.183 315 411 315C406.529 313.124 400.817 314 396 314z"/>
<path style="fill:#bbe0f9; stroke:none;" d="M168 315C171.959 316.661 176.74 316 181 316L204 316L286 316C282.041 314.339 277.26 315 273 315L250 315L168 315z"/>
<path style="fill:#37c47a; stroke:none;" d="M380.318 316.028C376.159 318.803 378 328.688 378 333C378 337.503 376.429 345.787 379.028 349.682C380.755 352.271 384.275 351.98 387 351.999C392.666 352.038 398.334 352.009 404 352C406.691 351.995 410.22 352.436 412.566 350.821C416.781 347.92 415 338.407 415 334C415 329.449 416.523 321.36 413.821 317.434C412.087 314.915 408.717 315.042 406 315.004C400.003 314.92 393.998 314.988 388 315C385.585 315.005 382.44 314.612 380.318 316.028z"/>
<path style="fill:#7ad4b0; stroke:none;" d="M412 315L413 316L412 315z"/>
<path style="fill:#52bbef; stroke:none;" d="M165.059 317.028C159.887 319.86 159.987 328.062 166.044 329.682C174.893 332.049 186.844 330 196 330L260 330L281 330C284.022 329.995 287.917 330.461 290.346 328.258C293.788 325.138 292.727 319.401 288.867 317.179C284.441 314.632 276.929 316 272 316L196 316L175 316C171.847 316 167.934 315.453 165.059 317.028z"/>
<path style="fill:#8ad7bc; stroke:none;" d="M414 317L415 318L414 317z"/>
<path style="fill:#ad715b; stroke:none;" d="M377 319L377 333C378.667 329.028 378.667 322.972 377 319z"/>
<path style="fill:#cae6f0; stroke:none;" d="M415 319L415 347C417.604 340.793 417.604 325.207 415 319z"/>
<path style="fill:#90d1f5; stroke:none;" d="M292.333 320.667C292.278 320.722 292.222 321.778 292.667 321.333C292.722 321.278 292.778 320.222 292.333 320.667z"/>
<path style="fill:#6fc5f2; stroke:none;" d="M166 330C169.959 331.661 174.74 331 179 331L202 331L286 331C282.041 329.339 277.26 330 273 330L250 330L166 330z"/>
<path style="fill:#a9d9f7; stroke:none;" d="M286.667 330.333C286.222 330.778 287.278 330.722 287.333 330.667C287.778 330.222 286.722 330.278 286.667 330.333z"/>
<path style="fill:#e6a9b9; stroke:none;" d="M341 330L342 331L341 330z"/>
<path style="fill:#f36e7d; stroke:none;" d="M342 331L343 332L342 331z"/>
<path style="fill:#eb94a4; stroke:none;" d="M343 332L344 333L343 332z"/>
<path style="fill:#e3b7c8; stroke:none;" d="M345 333C348.699 334.552 353.017 334 357 334L377 334C373.301 332.448 368.983 333 365 333L345 333z"/>
<path style="fill:#97dbc7; stroke:none;" d="M377 333L377 348C378.74 343.852 378.74 337.148 377 333z"/>
<path style="fill:#77c8f2; stroke:none;" d="M166 341C169.959 342.661 174.74 342 179 342L202 342L286 342C282.041 340.339 277.26 341 273 341L250 341L166 341z"/>
<path style="fill:#b2dcf8; stroke:none;" d="M286.667 341.333C286.222 341.778 287.278 341.722 287.333 341.667C287.778 341.222 286.722 341.278 286.667 341.333z"/>
<path style="fill:#52bbef; stroke:none;" d="M164.148 343.028C157.956 346.695 162.181 354.94 168.001 355.852C177.551 357.348 188.332 356 198 356L259 356L280 356C283.096 355.999 287.127 356.549 289.682 354.397C293.81 350.918 292.292 343.266 286.956 342.228C277.615 340.413 266.514 342 257 342L197 342L174 342C170.936 342 166.906 341.395 164.148 343.028z"/>
<path style="fill:#72c6f2; stroke:none;" d="M292 346L292 351C292.83 348.97 292.83 348.03 292 346z"/>
<path style="fill:#90d9c1; stroke:none;" d="M414 349L415 350L414 349z"/>
<path style="fill:#88d7bb; stroke:none;" d="M412 351L413 352L412 351z"/>
<path style="fill:#b5e2df; stroke:none;" d="M382 352C389.888 355.31 402.449 353 411 353C403.112 349.69 390.551 352 382 352z"/>
<path style="fill:#b3ddf8; stroke:none;" d="M168 356C171.959 357.661 176.74 357 181 357L204 357L286 357C282.041 355.339 277.26 356 273 356L250 356L168 356z"/>
<path style="fill:#d9ccb8; stroke:none;" d="M129 388C134.715 390.398 142.831 389 149 389C143.285 386.602 135.169 388 129 388z"/>
<path style="fill:#edbd83; stroke:none;" d="M149 388C155.919 390.903 166.52 389 174 389L229 389L421 389C414.081 386.097 403.48 388 396 388L341 388L149 388z"/>
<path style="fill:#8aa0cb; stroke:none;" d="M421 388C428.888 391.31 441.449 389 450 389C442.112 385.69 429.551 388 421 388z"/>
<path style="fill:#8a736d; stroke:none;" d="M421 389L421 420C422.328 416.834 422 413.419 422 410C422 403.58 423.497 394.951 421 389z"/>
<path style="fill:#797175; stroke:none;" d="M60 415L61 416L60 415z"/>
<path style="fill:#a78351; stroke:none;" d="M61 416L62 417L61 416z"/>
<path style="fill:#a17f56; stroke:none;" d="M64 420L65 421L64 420z"/>
<path style="fill:#b58745; stroke:none;" d="M65 421L66 422L65 421z"/>
<path style="fill:#ffa314; stroke:none;" d="M115 424C121.919 426.903 132.52 425 140 425L195 425L386 425C379.081 422.097 368.48 424 361 424L306 424L115 424z"/>
<path style="fill:#9c7860; stroke:none;" d="M386 424C394.367 427.511 407.924 425 417 425C408.633 421.489 395.076 424 386 424z"/>
<path style="fill:#a88651; stroke:none;" d="M68 425L69 426L68 425z"/>
<path style="fill:#5b688e; stroke:none;" d="M386 425L386 455C388.395 449.293 387 441.154 387 435C387 431.581 387.328 428.166 386 425z"/>
<path style="fill:#b28948; stroke:none;" d="M69 426L70 427L69 426z"/>
<path style="fill:#b38848; stroke:none;" d="M70 427L71 428L70 427z"/>
<path style="fill:#b78945; stroke:none;" d="M71 428L72 429L71 428z"/>
<path style="fill:#d09431; stroke:none;" d="M75.6667 433.333C75.2222 433.778 76.2778 433.722 76.3333 433.667C76.7778 433.222 75.7222 433.278 75.6667 433.333z"/>
<path style="fill:#6a6e83; stroke:none;" d="M76 434L77 435L76 434z"/>
<path style="fill:#9b845d; stroke:none;" d="M77.3333 434.667C77.2778 434.722 77.2222 435.778 77.6667 435.333C77.7222 435.278 77.7778 434.222 77.3333 434.667z"/>
<path style="fill:#e2a227; stroke:none;" d="M78 436C79.2228 437.195 79.42 437.316 81 438C79.7772 436.805 79.58 436.684 78 436z"/>
<path style="fill:#a0865a; stroke:none;" d="M80 438L81 439L80 438z"/>
<path style="fill:#8a7c6a; stroke:none;" d="M81 439L82 440L81 439z"/>
<path style="fill:#777479; stroke:none;" d="M82 440L83 441L82 440M83 441L84 442L83 441z"/>
<path style="fill:#777478; stroke:none;" d="M84 442L85 443L84 442z"/>
<path style="fill:#76747a; stroke:none;" d="M85 443L86 444L85 443z"/>
<path style="fill:#7a7576; stroke:none;" d="M86 444L87 445L86 444z"/>
<path style="fill:#6e7080; stroke:none;" d="M87 445L88 446L87 445z"/>
<path style="fill:#c8973a; stroke:none;" d="M88 445L89 446L88 445z"/>
<path style="fill:#6a6e83; stroke:none;" d="M88 446L89 447L88 446z"/>
<path style="fill:#c6963c; stroke:none;" d="M89 446L90 447L89 446z"/>
<path style="fill:#445ea0; stroke:none;" d="M89 447L90 448L89 447z"/>
<path style="fill:#c5963d; stroke:none;" d="M90 447L91 448L90 447z"/>
<path style="fill:#c4953e; stroke:none;" d="M91 448L92 449L91 448z"/>
<path style="fill:#ba9145; stroke:none;" d="M92 449L93 450L92 449z"/>
<path style="fill:#ae8c4f; stroke:none;" d="M93 450L94 451L93 450z"/>
<path style="fill:#a08659; stroke:none;" d="M94 451L95 452L94 451z"/>
<path style="fill:#928064; stroke:none;" d="M95 452L96 453L95 452z"/>
<path style="fill:#7d7774; stroke:none;" d="M96 453L97 454L96 453z"/>
<path style="fill:#c6963c; stroke:none;" d="M97 453L98 454L97 453z"/>
<path style="fill:#445ea0; stroke:none;" d="M97 454L98 455L97 454z"/>
<path style="fill:#b28e4b; stroke:none;" d="M98 454L99 455L98 454z"/>
<path style="fill:#a08659; stroke:none;" d="M99 455L100 456L99 455z"/>
<path style="fill:#948162; stroke:none;" d="M100 456L101 457L100 456z"/>
<path style="fill:#928064; stroke:none;" d="M101 457L102 458L101 457z"/>
<path style="fill:#978260; stroke:none;" d="M102 458L103 459L102 458z"/>
<path style="fill:#827970; stroke:none;" d="M384 458L385 459L384 458z"/>
<path style="fill:#cb9838; stroke:none;" d="M104 459C110.919 461.903 121.52 460 129 460L186 460L383 460C376.081 457.097 365.48 459 358 459L301 459L104 459z"/>
</svg>
