<?xml version="1.0" encoding="UTF-8"?>
<!DOCTYPE svg PUBLIC "-//W3C//DTD SVG 1.1//EN" "http://www.w3.org/Graphics/SVG/1.1/DTD/svg11.dtd">
<!-- Creator: CorelDRAW 2019 (64-Bit) -->
<svg xmlns="http://www.w3.org/2000/svg" xml:space="preserve" width="137.848mm" height="144.314mm" version="1.1" style="shape-rendering:geometricPrecision; text-rendering:geometricPrecision; image-rendering:optimizeQuality; fill-rule:evenodd; clip-rule:evenodd"
viewBox="0 0 6057.88 6342.02"
 xmlns:xlink="http://www.w3.org/1999/xlink"
 xmlns:xodm="http://www.corel.com/coreldraw/odm/2003">
 <defs>
  <style type="text/css">
   <![CDATA[
    .fil8 {fill:#37C47A}
    .fil0 {fill:#3949AB}
    .fil12 {fill:#3949AB}
    .fil15 {fill:#4DD0E1}
    .fil14 {fill:#4DD0E1}
    .fil10 {fill:#52BBEF}
    .fil11 {fill:#88FFFF}
    .fil13 {fill:#88FFFF}
    .fil7 {fill:#91E0E8}
    .fil5 {fill:#C3DDF4}
    .fil6 {fill:#D9EAFC}
    .fil3 {fill:#EF8318}
    .fil1 {fill:#EF9614}
    .fil16 {fill:#FE3745}
    .fil9 {fill:#FE3745}
    .fil4 {fill:#FF9518}
    .fil2 {fill:#FFAF10}
   ]]>
  </style>
 </defs>
 <g id="Capa_x0020_2">
  <metadata id="CorelCorpID_0Corel-Layer"/>
  <path class="fil0" d="M765.6 5326.03l382.51 361.43c516.65,409.81 1170.16,654.56 1880.84,654.56 1672.84,0 3028.94,-1356.1 3028.94,-3028.94 0,-1672.84 -1356.1,-3028.94 -3028.94,-3028.94 -1672.84,0 -3028.94,1356.1 -3028.94,3028.94 0,772.71 289.35,1477.84 765.6,2012.95z"/>
  <path class="fil1" d="M568.56 5079.85c149.35,237.25 331.26,412.87 580.6,607.1 37.03,0.41 76.47,1.29 118.6,1.3 675.93,0.2 2023.56,0.59 2698.93,0.2 675.36,-0.39 678.46,-1.56 680.01,-2.72 1.55,-1.16 1.55,-2.32 1.75,-799.39 0.2,-797.07 0.6,-2390.04 0.8,-3191.95 0.2,-801.91 0.19,-812.77 -0.19,-818.19 -0.39,-5.43 -1.17,-5.43 -673.82,-6.78 -672.65,-1.36 -2017.17,-4.07 -2697.18,0.4 -680.01,4.46 -695.51,16.08 -703.65,24.22 -8.14,8.14 -8.92,12.79 -8.53,808.11 0.39,795.31 1.95,2381.3 2.52,3177.79 0.05,73.18 0.11,139.53 0.15,199.92z"/>
  <path class="fil2" d="M765.6 5326.03c116.28,128.79 249.19,259.55 382.51,361.43 76.91,0.02 170.01,0.05 282.73,0.08 643.23,0.2 1925.66,0.59 2568.35,0.2 642.69,-0.39 645.64,-1.56 647.12,-2.72 1.47,-1.16 1.47,-2.32 1.67,-800.23 0.19,-797.91 0.58,-2392.56 0.76,-3195.32 0.19,-802.75 0.18,-813.62 -0.18,-819.05 -0.37,-5.43 -1.12,-5.43 -641.22,-6.79 -640.11,-1.36 -1919.58,-4.07 -2566.69,0.4 -647.12,4.46 -661.86,16.09 -669.61,24.24 -7.75,8.15 -8.49,12.81 -8.11,808.96 0.36,796.15 1.85,2383.82 2.4,3181.14 0.13,190.95 0.21,336.57 0.28,447.66z"/>
 </g>
 <g id="Capa_x0020_1">
  <metadata id="CorelCorpID_1Corel-Layer"/>
  <path class="fil3" d="M997.51 4442.35c-0.58,-796.48 -2.13,-2382.47 -2.52,-3177.79 -0.39,-795.32 0.39,-799.97 8.53,-808.11 8.14,-8.14 23.64,-19.76 703.65,-24.22 680.01,-4.46 2024.54,-1.75 2697.18,-0.4 672.65,1.35 673.43,1.35 673.82,6.78 0.39,5.43 0.39,16.28 0.19,818.19 -0.2,801.91 -0.6,2394.88 -0.8,3191.95 -0.2,797.06 -0.2,798.22 -1.75,799.39 -1.55,1.16 -4.65,2.33 -680.01,2.72 -675.36,0.39 -2022.99,-0 -2698.93,-0.2 -675.94,-0.19 -680.21,-0.19 -684.86,0.19 -4.65,0.39 -9.69,1.16 -12.01,-1.94 -2.32,-3.1 -1.92,-10.09 -2.49,-806.57z"/>
  <path class="fil4" d="M1221.68 4440.46c-0.55,-796.48 -2.03,-2382.47 -2.4,-3177.79 -0.37,-795.32 0.37,-799.97 8.1,-808.11 7.74,-8.14 22.47,-19.76 668.9,-24.22 646.43,-4.46 1924.56,-1.75 2563.99,-0.4 639.43,1.35 640.17,1.35 640.55,6.78 0.36,5.43 0.37,16.28 0.18,818.19 -0.19,801.91 -0.57,2394.88 -0.76,3191.95 -0.19,797.06 -0.19,798.22 -1.67,799.39 -1.47,1.16 -4.43,2.33 -646.43,2.72 -642.01,0.39 -1923.09,-0 -2565.65,-0.2 -642.56,-0.19 -646.62,-0.19 -651.04,0.19 -4.42,0.39 -9.21,1.16 -11.41,-1.94 -2.2,-3.1 -1.82,-10.09 -2.36,-806.57z"/>
 </g>
 <g id="Capa_x0020_3">
  <metadata id="CorelCorpID_2Corel-Layer"/>
  <path class="fil5" d="M1429.92 4018.36c-0.56,-796.48 -2.09,-2382.47 -2.47,-3177.79 -0.39,-795.32 0.38,-799.97 8.35,-808.11 7.97,-8.14 23.16,-19.76 689.49,-24.22 666.33,-4.46 1983.79,-1.75 2642.9,-0.4 659.11,1.35 659.87,1.35 660.26,6.78 0.38,5.43 0.38,16.28 0.19,818.19 -0.2,801.91 -0.59,2394.88 -0.79,3191.95 -0.2,797.06 -0.2,798.22 -1.72,799.39 -1.52,1.16 -4.56,2.33 -666.33,2.72 -661.77,0.39 -1982.28,-0 -2644.61,-0.2 -662.34,-0.19 -666.53,-0.19 -671.08,0.19 -4.56,0.39 -9.5,1.16 -11.76,-1.94 -2.27,-3.1 -1.88,-10.09 -2.44,-806.57z"/>
  <path class="fil6" d="M1630.98 4012.58c-0.55,-796.48 -2.03,-2382.47 -2.4,-3177.79 -0.37,-795.32 0.37,-799.97 8.1,-808.11 7.74,-8.14 22.47,-19.76 668.9,-24.22 646.43,-4.46 1924.56,-1.75 2563.99,-0.4 639.43,1.35 640.17,1.35 640.55,6.78 0.36,5.43 0.37,16.28 0.18,818.19 -0.19,801.91 -0.57,2394.88 -0.76,3191.95 -0.19,797.06 -0.19,798.22 -1.67,799.39 -1.47,1.16 -4.43,2.33 -646.43,2.72 -642.01,0.39 -1923.09,-0 -2565.65,-0.2 -642.56,-0.19 -646.62,-0.19 -651.04,0.19 -4.42,0.39 -9.21,1.16 -11.41,-1.94 -2.2,-3.1 -1.82,-10.09 -2.36,-806.57z"/>
 </g>
 <g id="Capa_x0020_4">
  <metadata id="CorelCorpID_3Corel-Layer"/>
  <rect class="fil7" x="3347.89" y="502.45" width="302.31" height="969.77" rx="87.89" ry="90.06"/>
  <rect class="fil8" x="2860.73" y="1018.7" width="302.31" height="445.35" rx="87.89" ry="41.36"/>
  <rect class="fil9" x="2373.57" y="737.33" width="302.31" height="718.57" rx="87.89" ry="66.73"/>
  <rect class="fil2" x="1886.41" y="501.26" width="302.31" height="946.47" rx="87.89" ry="87.89"/>
  <path class="fil10" d="M1793.7 1376.99l1930.86 0c101.13,8.82 109.25,182.75 0,186.05l-1930.86 0c-87.62,-25.97 -75.72,-168.21 0,-186.05z"/>
  <path class="fil11" d="M1902.64 3589.72l1514.89 0c79.34,8.82 85.72,182.75 0,186.05l-1514.89 0c-68.74,-25.97 -59.41,-168.21 0,-186.05z"/>
  <path class="fil12" d="M3630.26 2881.64l1399.21 0c73.29,8.82 79.17,182.75 0,186.05l-1399.21 0c-63.49,-25.97 -54.87,-168.21 0,-186.05z"/>
  <path class="fil12" d="M3633.71 2566.56l1399.21 0c73.29,8.82 79.17,182.75 0,186.05l-1399.21 0c-63.49,-25.97 -54.87,-168.21 0,-186.05z"/>
  <path class="fil12" d="M3637.17 2251.49l1399.21 0c73.29,8.82 79.17,182.75 0,186.05l-1399.21 0c-63.49,-25.97 -54.87,-168.21 0,-186.05z"/>
  <path class="fil0" d="M3640.63 1936.41l1399.21 0c73.29,8.82 79.17,182.75 0,186.05l-1399.21 0c-63.49,-25.97 -54.87,-168.21 0,-186.05z"/>
  <path class="fil13" d="M1899.12 3904.85l1514.89 0c79.34,8.82 85.72,182.75 0,186.05l-1514.89 0c-68.74,-25.97 -59.41,-168.21 0,-186.05z"/>
  <path class="fil13" d="M1895.61 4219.99l1514.89 0c79.34,8.82 85.72,182.75 0,186.05l-1514.89 0c-68.74,-25.97 -59.41,-168.21 0,-186.05z"/>
  <path class="fil14" d="M4115 1376.63l901.6 0c96.5,0.97 108.86,181.58 0,186.04l-901.6 0c-86.1,-1.55 -93.03,-184.49 0,-186.04z"/>
  <path class="fil14" d="M4111.48 1066.21l901.6 0c96.5,0.97 108.86,181.58 0,186.04l-901.6 0c-86.1,-1.55 -93.03,-184.49 0,-186.04z"/>
  <path class="fil14" d="M4107.97 755.78l901.6 0c96.5,0.97 108.86,181.58 0,186.04l-901.6 0c-86.1,-1.55 -93.03,-184.49 0,-186.04z"/>
  <path class="fil14" d="M4104.45 445.35l901.6 0c96.5,0.97 108.86,181.58 0,186.04l-901.6 0c-86.1,-1.55 -93.03,-184.49 0,-186.04z"/>
  <path class="fil0" d="M4084.09 3575.78c0.15,96.74 0.77,287.97 1.06,383.82 0.29,95.85 0.24,96.33 0.24,101.6 0,5.26 0.05,15.3 4.03,24.56 3.97,9.26 11.87,17.74 18.48,21.93 6.61,4.19 11.94,4.09 115.09,3.91 103.15,-0.19 304.12,-0.47 408.34,-0.98 104.22,-0.51 111.68,-1.25 118.8,-5.44 7.12,-4.2 13.9,-11.85 17.45,-16.91 3.54,-5.06 3.84,-7.52 3.59,-107.96 -0.25,-100.45 -1.06,-298.89 -1.39,-398.83 -0.33,-99.95 -0.18,-101.4 -2.79,-107.83 -2.61,-6.43 -7.99,-17.84 -14.28,-25.69 -6.3,-7.85 -13.53,-12.13 -18.11,-14.47 -4.58,-2.34 -6.52,-2.73 -107,-2.87 -100.48,-0.15 -299.5,-0.05 -399.73,0.14 -100.24,0.19 -101.69,0.48 -107.26,3 -5.57,2.51 -15.27,7.24 -21.95,14.41 -6.69,7.17 -10.37,16.78 -12.38,22.71 -2.01,5.93 -2.34,8.18 -2.19,104.92z"/>
  <path class="fil15" d="M4541.01 3994.57c0.1,64.57 0.51,192.21 0.71,256.18 0.19,63.98 0.16,64.3 0.16,67.81 0,3.51 0.04,10.21 2.69,16.39 2.65,6.18 7.92,11.84 12.34,14.64 4.41,2.79 7.97,2.73 76.82,2.61 68.85,-0.12 202.99,-0.31 272.55,-0.65 69.56,-0.34 74.54,-0.83 79.3,-3.63 4.75,-2.81 9.28,-7.91 11.64,-11.29 2.36,-3.38 2.57,-5.02 2.4,-72.06 -0.17,-67.04 -0.71,-199.49 -0.93,-266.2 -0.22,-66.71 -0.12,-67.68 -1.86,-71.97 -1.74,-4.29 -5.33,-11.91 -9.54,-17.15 -4.2,-5.24 -9.03,-8.1 -12.08,-9.66 -3.06,-1.56 -4.36,-1.82 -71.42,-1.92 -67.06,-0.1 -199.9,-0.04 -266.8,0.1 -66.9,0.13 -67.87,0.32 -71.59,2 -3.72,1.67 -10.19,4.83 -14.65,9.62 -4.46,4.79 -6.92,11.2 -8.26,15.16 -1.34,3.96 -1.56,5.46 -1.46,70.02z"/>
  <path class="fil16" d="M1773.34 2657.65c-1.11,-350.57 280.09,-727.59 721.88,-724.66l-1.85 365.3c-216.73,29.08 -346.2,164.17 -359.1,354.9l-360.93 4.46z"/>
  <path class="fil2" d="M3227.21 2664.81c-19.98,929.5 -1446.21,986.53 -1454.51,-8.24l360.93 -4.46c84.2,544.41 678.38,451.27 730.08,16.16l363.5 -3.46z"/>
  <path class="fil7" d="M3405.62 2472.8c1.11,-350.57 -280.09,-727.59 -721.88,-724.66l1.85 365.3c216.73,29.08 346.2,164.17 359.1,354.9l360.93 4.46z"/>
 </g>
</svg>
